<?xml version="1.0" ?><svg height="612" id="svg3310" version="1.0" width="612" xmlns="http://www.w3.org/2000/svg" xmlns:cc="http://creativecommons.org/ns#" xmlns:dc="http://purl.org/dc/elements/1.1/" xmlns:inkscape="http://www.inkscape.org/namespaces/inkscape" xmlns:rdf="http://www.w3.org/1999/02/22-rdf-syntax-ns#" xmlns:sodipodi="http://sodipodi.sourceforge.net/DTD/sodipodi-0.dtd" xmlns:svg="http://www.w3.org/2000/svg"><defs id="defs3312"><marker id="ArrowEnd" markerHeight="3" markerUnits="strokeWidth" markerWidth="4" orient="auto" refX="0" refY="5" viewBox="0 0 10 10"><path d="M 0,0 L 10,5 L 0,10 L 0,0 z" id="path3315"/></marker><marker id="ArrowStart" markerHeight="3" markerUnits="strokeWidth" markerWidth="4" orient="auto" refX="10" refY="5" viewBox="0 0 10 10"><path d="M 10,0 L 0,5 L 10,10 L 10,0 z" id="path3318"/></marker></defs><g id="g3320" transform="translate(-8.19e-2,-0.5853944)"><path d="M 82.4318,17.9239 C 41.0968,17.9239 17.8608,39.2949 17.8608,82.9599 L 17.8608,533.082 C 17.8608,573.925 38.7518,595.31 80.0528,595.31 L 532.077,595.31 C 573.38,595.31 594.303,574.99 594.303,533.082 L 594.303,82.9599 C 594.303,40.3599 573.38,17.9239 530.78,17.9239 C 530.78,17.9239 82.2888,17.7819 82.4318,17.9239 z" id="path3322" style="fill:#000000;stroke:#000000;stroke-width:3.40799999"/><g id="g3324"><path d="M 306.124,452.721 L 306.065,452.721 L 201.333,452.721 L 201.333,485.79 C 201.333,526.047 143.094,526.526 143.094,485.79 L 143.094,452.721 L 112.098,452.721 L 112.098,349.161 C 112.098,321.365 134.456,306.676 147.082,305.073 L 178.956,223.676 C 184.956,208.176 197.956,194.928 222.456,194.928 L 267.994,194.928 L 267.994,173.676 C 267.994,165.176 272.604,160.86 280.104,160.86 L 306.065,160.86 L 306.124,160.86 L 306.062,160.86 L 306.121,160.86 L 332.582,160.86 C 340.082,160.86 344.692,165.176 344.692,173.676 L 344.692,194.928 L 389.708,194.928 C 414.208,194.928 427.208,208.176 433.208,223.676 L 465.082,305.073 C 477.708,306.676 500.089,321.365 500.089,349.161 L 500.089,452.721 L 469.092,452.721 L 469.092,485.79 C 469.092,526.526 410.854,526.047 410.854,485.79 L 410.854,452.721 L 306.121,452.721 L 306.062,452.721 L 306.124,452.721 z" id="path3326" style="fill:#ffffff;stroke:none"/><g id="g3328"><path d="M 306.062,303.156 L 306.003,303.156 L 180.082,303.156 L 204.08,240.176 C 207.08,231.176 211.582,224.676 222.082,224.579 L 306.003,224.579 L 306.062,224.579 L 306.121,224.579 L 390.084,224.579 C 400.584,224.676 405.084,231.176 408.084,240.176 L 432.082,303.156 L 306.121,303.156 L 306.062,303.156 z" id="path3330" style="fill:#000000;stroke:none"/><g id="g3332"><g id="g3334"><path d="M 173.141,389.412 C 158.284,389.412 146.24,377.121 146.24,361.962 C 146.24,346.803 158.284,334.513 173.141,334.513 C 187.996,334.513 200.041,346.803 200.041,361.962 C 200.041,377.121 187.996,389.412 173.141,389.412 z" id="path3336" style="fill:#000000;stroke:none"/><path id="path3338" style="fill:#000000;stroke:none"/></g><g id="g3340"><path d="M 439.025,389.412 C 453.88,389.412 465.924,377.121 465.924,361.962 C 465.924,346.803 453.88,334.513 439.025,334.513 C 424.169,334.513 412.123,346.803 412.123,361.962 C 412.123,377.121 424.169,389.412 439.025,389.412 z" id="path3342" style="fill:#000000;stroke:none"/><path id="path3344" style="fill:#000000;stroke:none"/></g></g></g></g></g></svg>